<mxfile host="app.diagrams.net" modified="2021-01-05T09:36:54.861Z" agent="5.0 (Macintosh; Intel Mac OS X 10_15_7) AppleWebKit/605.1.15 (KHTML, like Gecko) Version/14.0.2 Safari/605.1.15" etag="PQMbkD1GMutL53k41WF4" version="14.1.8" type="github">
  <diagram id="WOyw8Ke5U9A3105OGAdO" name="Page-1">
    <mxGraphModel dx="1426" dy="819" grid="1" gridSize="10" guides="1" tooltips="1" connect="1" arrows="1" fold="1" page="1" pageScale="1" pageWidth="1169" pageHeight="827" math="0" shadow="0">
      <root>
        <mxCell id="0" />
        <mxCell id="1" parent="0" />
        <mxCell id="XYajv54Xpjx07cBY7n9Z-3" style="edgeStyle=orthogonalEdgeStyle;rounded=0;orthogonalLoop=1;jettySize=auto;html=1;exitX=0.5;exitY=1;exitDx=0;exitDy=0;" edge="1" parent="1" source="XYajv54Xpjx07cBY7n9Z-1">
          <mxGeometry relative="1" as="geometry">
            <mxPoint x="145" y="180" as="targetPoint" />
          </mxGeometry>
        </mxCell>
        <mxCell id="XYajv54Xpjx07cBY7n9Z-1" value="用户进入确认订单页面" style="rounded=1;whiteSpace=wrap;html=1;" vertex="1" parent="1">
          <mxGeometry x="70" y="60" width="150" height="60" as="geometry" />
        </mxCell>
        <mxCell id="XYajv54Xpjx07cBY7n9Z-6" value="" style="edgeStyle=orthogonalEdgeStyle;rounded=0;orthogonalLoop=1;jettySize=auto;html=1;" edge="1" parent="1" source="XYajv54Xpjx07cBY7n9Z-4" target="XYajv54Xpjx07cBY7n9Z-5">
          <mxGeometry relative="1" as="geometry" />
        </mxCell>
        <mxCell id="XYajv54Xpjx07cBY7n9Z-4" value="优惠券&lt;br&gt;服务端查询营销系统" style="rounded=1;whiteSpace=wrap;html=1;" vertex="1" parent="1">
          <mxGeometry x="85" y="180" width="120" height="60" as="geometry" />
        </mxCell>
        <mxCell id="XYajv54Xpjx07cBY7n9Z-8" value="" style="edgeStyle=orthogonalEdgeStyle;rounded=0;orthogonalLoop=1;jettySize=auto;html=1;" edge="1" parent="1" source="XYajv54Xpjx07cBY7n9Z-5">
          <mxGeometry relative="1" as="geometry">
            <mxPoint x="460" y="210" as="targetPoint" />
            <Array as="points">
              <mxPoint x="450" y="210" />
              <mxPoint x="450" y="210" />
            </Array>
          </mxGeometry>
        </mxCell>
        <mxCell id="XYajv54Xpjx07cBY7n9Z-5" value="查询营销系统" style="whiteSpace=wrap;html=1;rounded=1;" vertex="1" parent="1">
          <mxGeometry x="270" y="180" width="120" height="60" as="geometry" />
        </mxCell>
        <mxCell id="XYajv54Xpjx07cBY7n9Z-11" value="" style="edgeStyle=orthogonalEdgeStyle;rounded=0;orthogonalLoop=1;jettySize=auto;html=1;" edge="1" parent="1" source="XYajv54Xpjx07cBY7n9Z-9" target="XYajv54Xpjx07cBY7n9Z-10">
          <mxGeometry relative="1" as="geometry" />
        </mxCell>
        <mxCell id="XYajv54Xpjx07cBY7n9Z-12" value="Y" style="edgeLabel;html=1;align=center;verticalAlign=middle;resizable=0;points=[];" vertex="1" connectable="0" parent="XYajv54Xpjx07cBY7n9Z-11">
          <mxGeometry x="-0.1556" y="-1" relative="1" as="geometry">
            <mxPoint as="offset" />
          </mxGeometry>
        </mxCell>
        <mxCell id="XYajv54Xpjx07cBY7n9Z-14" value="" style="edgeStyle=orthogonalEdgeStyle;rounded=0;orthogonalLoop=1;jettySize=auto;html=1;" edge="1" parent="1" source="XYajv54Xpjx07cBY7n9Z-9">
          <mxGeometry relative="1" as="geometry">
            <mxPoint x="530" y="280" as="targetPoint" />
          </mxGeometry>
        </mxCell>
        <mxCell id="XYajv54Xpjx07cBY7n9Z-15" value="N" style="edgeLabel;html=1;align=center;verticalAlign=middle;resizable=0;points=[];" vertex="1" connectable="0" parent="XYajv54Xpjx07cBY7n9Z-14">
          <mxGeometry x="0.4" y="1" relative="1" as="geometry">
            <mxPoint as="offset" />
          </mxGeometry>
        </mxCell>
        <mxCell id="XYajv54Xpjx07cBY7n9Z-9" value="判断是否有可用的券" style="rhombus;whiteSpace=wrap;html=1;" vertex="1" parent="1">
          <mxGeometry x="460" y="170" width="140" height="80" as="geometry" />
        </mxCell>
        <mxCell id="XYajv54Xpjx07cBY7n9Z-10" value="返回最优券的优惠金额" style="whiteSpace=wrap;html=1;" vertex="1" parent="1">
          <mxGeometry x="690" y="180" width="120" height="60" as="geometry" />
        </mxCell>
        <mxCell id="XYajv54Xpjx07cBY7n9Z-18" value="" style="edgeStyle=orthogonalEdgeStyle;rounded=0;orthogonalLoop=1;jettySize=auto;html=1;" edge="1" parent="1" source="XYajv54Xpjx07cBY7n9Z-16" target="XYajv54Xpjx07cBY7n9Z-17">
          <mxGeometry relative="1" as="geometry" />
        </mxCell>
        <mxCell id="XYajv54Xpjx07cBY7n9Z-19" value="Y" style="edgeLabel;html=1;align=center;verticalAlign=middle;resizable=0;points=[];" vertex="1" connectable="0" parent="XYajv54Xpjx07cBY7n9Z-18">
          <mxGeometry x="0.0316" y="-3" relative="1" as="geometry">
            <mxPoint as="offset" />
          </mxGeometry>
        </mxCell>
        <mxCell id="XYajv54Xpjx07cBY7n9Z-21" value="" style="edgeStyle=orthogonalEdgeStyle;rounded=0;orthogonalLoop=1;jettySize=auto;html=1;" edge="1" parent="1" source="XYajv54Xpjx07cBY7n9Z-16" target="XYajv54Xpjx07cBY7n9Z-20">
          <mxGeometry relative="1" as="geometry" />
        </mxCell>
        <mxCell id="XYajv54Xpjx07cBY7n9Z-22" value="N" style="edgeLabel;html=1;align=center;verticalAlign=middle;resizable=0;points=[];" vertex="1" connectable="0" parent="XYajv54Xpjx07cBY7n9Z-21">
          <mxGeometry x="-0.05" y="-1" relative="1" as="geometry">
            <mxPoint as="offset" />
          </mxGeometry>
        </mxCell>
        <mxCell id="XYajv54Xpjx07cBY7n9Z-16" value="&lt;span&gt;判断改商品下是否有可领取的券&lt;/span&gt;" style="rhombus;whiteSpace=wrap;html=1;" vertex="1" parent="1">
          <mxGeometry x="455" y="280" width="150" height="80" as="geometry" />
        </mxCell>
        <mxCell id="XYajv54Xpjx07cBY7n9Z-17" value="返回 领取" style="whiteSpace=wrap;html=1;" vertex="1" parent="1">
          <mxGeometry x="700" y="290" width="120" height="60" as="geometry" />
        </mxCell>
        <mxCell id="XYajv54Xpjx07cBY7n9Z-20" value="返回 暂无可用" style="whiteSpace=wrap;html=1;" vertex="1" parent="1">
          <mxGeometry x="470" y="400" width="120" height="60" as="geometry" />
        </mxCell>
      </root>
    </mxGraphModel>
  </diagram>
</mxfile>
